<?xml version="1.0" standalone="no"?><!DOCTYPE svg PUBLIC "-//W3C//DTD SVG 1.1//EN" "http://www.w3.org/Graphics/SVG/1.1/DTD/svg11.dtd"><svg t="1754042215863" class="icon" viewBox="0 0 1024 1024" version="1.1" xmlns="http://www.w3.org/2000/svg" p-id="14179" width="32" height="32" xmlns:xlink="http://www.w3.org/1999/xlink"><path d="M896 128a42.666667 42.666667 0 0 1 42.666667 42.666667v298.666666h-85.333334V213.333333H170.666667v597.333334h256v85.333333H128a42.666667 42.666667 0 0 1-42.666667-42.666667V170.666667a42.666667 42.666667 0 0 1 42.666667-42.666667h768z m0 426.666667a42.666667 42.666667 0 0 1 42.666667 42.666666v256a42.666667 42.666667 0 0 1-42.666667 42.666667h-341.333333a42.666667 42.666667 0 0 1-42.666667-42.666667v-256a42.666667 42.666667 0 0 1 42.666667-42.666666h341.333333zM286.165333 268.501333l96 96L469.333333 277.333333V512H234.666667l87.168-87.168-96-96 60.330666-60.330667z" p-id="14180" fill="#1296db"></path></svg>